<svg xmlns="http://www.w3.org/2000/svg" viewBox="0 0 64 64" role="img" aria-label="OpenMe">
  <defs>
    <linearGradient id="r" x1="0" y1="0" x2="0" y2="1"><stop stop-color="#ff4a3d"/><stop offset=".52" stop-color="#e52521"/><stop offset="1" stop-color="#b91416"/></linearGradient>
    <filter id="s" x="-20%" y="-20%" width="140%" height="150%"><feDropShadow dx="0" dy="3" stdDeviation="2" flood-color="#420608" flood-opacity=".45"/></filter>
  </defs>
  <rect x="5" y="4" width="54" height="54" rx="13" fill="#680b0d" opacity=".55"/>
  <rect x="5" y="2" width="54" height="54" rx="13" fill="url(#r)" stroke="#8f1114" stroke-width="2" filter="url(#s)"/>
  <path d="M10 14c7-8 28-10 41-2" fill="none" stroke="#ff887d" stroke-width="3" stroke-linecap="round" opacity=".65"/>
  <circle cx="13" cy="12" r="2" fill="#ffc72c"/><circle cx="51" cy="12" r="2" fill="#ffc72c"/>
  <circle cx="13" cy="46" r="2" fill="#8c0d10"/><circle cx="51" cy="46" r="2" fill="#8c0d10"/>
  <path d="M15 43V17h8l9 12 9-12h8v26h-8V29l-9 11-9-11v14z" fill="#fff8e8" stroke="#701014" stroke-width="2" stroke-linejoin="round"/>
  <path d="M18 19h4l10 14 10-14h4" fill="none" stroke="#fff" stroke-width="2" stroke-linecap="round" opacity=".75"/>
</svg>